<?xml version="1.0" standalone="no"?>
<!DOCTYPE svg PUBLIC "-//W3C//DTD SVG 20010904//EN"
 "http://www.w3.org/TR/2001/REC-SVG-20010904/DTD/svg10.dtd">
<svg version="1.0" xmlns="http://www.w3.org/2000/svg"
 width="140.000000pt" height="140.000000pt" viewBox="0 0 140.000000 140.000000"
 preserveAspectRatio="xMidYMid meet">
<metadata>
Created by potrace 1.11, written by Peter Selinger 2001-2013
</metadata>
<g transform="translate(0.000000,140.000000) scale(0.100000,-0.100000)"
fill="#000000" stroke="none">
<path d="M0 700 l0 -700 308 2 307 3 9 80 8 80 182 0 c225 0 263 10 346 94 66
66 96 142 87 219 -4 39 -12 53 -46 83 -36 33 -68 46 -153 64 -27 5 -28 4 -28
-38 0 -62 -21 -87 -74 -87 -58 0 -76 21 -76 88 l0 52 -39 0 c-39 0 -40 0 -47
-46 -11 -72 -73 -95 -126 -47 -31 28 -21 103 13 103 21 0 24 9 38 135 6 50 21
180 35 290 13 110 27 228 30 263 l7 62 -391 0 -390 0 0 -700z m283 394 c21 -8
9 -44 -14 -44 -19 0 -27 29 -12 43 8 8 8 8 26 1z m189 -395 c29 -6 56 -14 61
-18 9 -9 -19 -93 -36 -103 -23 -15 -77 -8 -97 12 -23 23 -25 43 -9 89 12 35
10 35 81 20z"/>
<path d="M1135 1120 c-42 -17 -68 -58 -68 -105 0 -138 204 -139 207 -1 1 52
-9 67 -28 41 -16 -22 -49 -13 -44 12 2 12 13 18 30 18 33 -1 26 13 -18 31 -37
16 -50 16 -79 4z"/>
</g>
</svg>
